<mxfile host="app.diagrams.net" modified="2021-06-16T10:25:57.405Z" agent="5.0 (Windows NT 10.0; Win64; x64) AppleWebKit/537.36 (KHTML, like Gecko) Chrome/91.0.4472.77 Safari/537.36" etag="iyktcCw2V3Rcmz5Qwagi" version="14.7.9" type="github">
  <diagram id="C5RBs43oDa-KdzZeNtuy" name="Page-1">
    <mxGraphModel dx="1200" dy="653" grid="1" gridSize="10" guides="1" tooltips="1" connect="1" arrows="1" fold="1" page="1" pageScale="1" pageWidth="827" pageHeight="1169" math="0" shadow="0">
      <root>
        <mxCell id="WIyWlLk6GJQsqaUBKTNV-0" />
        <mxCell id="WIyWlLk6GJQsqaUBKTNV-1" parent="WIyWlLk6GJQsqaUBKTNV-0" />
        <mxCell id="LAtPh6FEfaAHVFc0PdJ9-2" style="edgeStyle=orthogonalEdgeStyle;rounded=0;orthogonalLoop=1;jettySize=auto;html=1;exitX=0.5;exitY=1;exitDx=0;exitDy=0;" edge="1" parent="WIyWlLk6GJQsqaUBKTNV-1" source="WIyWlLk6GJQsqaUBKTNV-3">
          <mxGeometry relative="1" as="geometry">
            <mxPoint x="414" y="150" as="targetPoint" />
          </mxGeometry>
        </mxCell>
        <mxCell id="LAtPh6FEfaAHVFc0PdJ9-4" style="edgeStyle=orthogonalEdgeStyle;rounded=0;orthogonalLoop=1;jettySize=auto;html=1;" edge="1" parent="WIyWlLk6GJQsqaUBKTNV-1" source="WIyWlLk6GJQsqaUBKTNV-3">
          <mxGeometry relative="1" as="geometry">
            <mxPoint x="414" y="240" as="targetPoint" />
          </mxGeometry>
        </mxCell>
        <mxCell id="WIyWlLk6GJQsqaUBKTNV-3" value="Homepage" style="rounded=1;whiteSpace=wrap;html=1;fontSize=12;glass=0;strokeWidth=4;shadow=0;" parent="WIyWlLk6GJQsqaUBKTNV-1" vertex="1">
          <mxGeometry x="329" y="100" width="170" height="70" as="geometry" />
        </mxCell>
        <mxCell id="LAtPh6FEfaAHVFc0PdJ9-1" value="About Me&amp;nbsp;" style="rounded=1;whiteSpace=wrap;html=1;" vertex="1" parent="WIyWlLk6GJQsqaUBKTNV-1">
          <mxGeometry x="100" y="280" width="90" height="40" as="geometry" />
        </mxCell>
        <mxCell id="LAtPh6FEfaAHVFc0PdJ9-3" value="&lt;font style=&quot;font-size: 25px&quot;&gt;&lt;b&gt;PERSONAL PORTFOLIO&lt;/b&gt;&lt;/font&gt;" style="text;html=1;strokeColor=none;fillColor=none;align=center;verticalAlign=middle;whiteSpace=wrap;rounded=0;" vertex="1" parent="WIyWlLk6GJQsqaUBKTNV-1">
          <mxGeometry x="204" y="20" width="420" height="20" as="geometry" />
        </mxCell>
        <mxCell id="LAtPh6FEfaAHVFc0PdJ9-5" value="" style="endArrow=none;html=1;endSize=10;targetPerimeterSpacing=15;" edge="1" parent="WIyWlLk6GJQsqaUBKTNV-1">
          <mxGeometry width="50" height="50" relative="1" as="geometry">
            <mxPoint x="143" y="240" as="sourcePoint" />
            <mxPoint x="683" y="240" as="targetPoint" />
          </mxGeometry>
        </mxCell>
        <mxCell id="LAtPh6FEfaAHVFc0PdJ9-6" value="Case Studies&amp;nbsp;" style="rounded=1;whiteSpace=wrap;html=1;" vertex="1" parent="WIyWlLk6GJQsqaUBKTNV-1">
          <mxGeometry x="369" y="280" width="90" height="40" as="geometry" />
        </mxCell>
        <mxCell id="LAtPh6FEfaAHVFc0PdJ9-7" value="Skill/Resume" style="rounded=1;whiteSpace=wrap;html=1;" vertex="1" parent="WIyWlLk6GJQsqaUBKTNV-1">
          <mxGeometry x="520" y="280" width="90" height="40" as="geometry" />
        </mxCell>
        <mxCell id="LAtPh6FEfaAHVFc0PdJ9-8" value="Contact me/Mail me" style="rounded=1;whiteSpace=wrap;html=1;" vertex="1" parent="WIyWlLk6GJQsqaUBKTNV-1">
          <mxGeometry x="640" y="280" width="90" height="40" as="geometry" />
        </mxCell>
        <mxCell id="LAtPh6FEfaAHVFc0PdJ9-10" value="Blogs&lt;br&gt;" style="rounded=1;whiteSpace=wrap;html=1;" vertex="1" parent="WIyWlLk6GJQsqaUBKTNV-1">
          <mxGeometry x="239" y="280" width="90" height="40" as="geometry" />
        </mxCell>
        <mxCell id="LAtPh6FEfaAHVFc0PdJ9-12" value="" style="endArrow=classic;html=1;endSize=10;targetPerimeterSpacing=15;entryX=0.5;entryY=0;entryDx=0;entryDy=0;" edge="1" parent="WIyWlLk6GJQsqaUBKTNV-1" target="LAtPh6FEfaAHVFc0PdJ9-1">
          <mxGeometry width="50" height="50" relative="1" as="geometry">
            <mxPoint x="145" y="240" as="sourcePoint" />
            <mxPoint x="430" y="320" as="targetPoint" />
            <Array as="points">
              <mxPoint x="145" y="270" />
            </Array>
          </mxGeometry>
        </mxCell>
        <mxCell id="LAtPh6FEfaAHVFc0PdJ9-13" value="" style="endArrow=classic;html=1;endSize=10;targetPerimeterSpacing=15;entryX=0.5;entryY=0;entryDx=0;entryDy=0;" edge="1" parent="WIyWlLk6GJQsqaUBKTNV-1">
          <mxGeometry width="50" height="50" relative="1" as="geometry">
            <mxPoint x="283.88" y="240" as="sourcePoint" />
            <mxPoint x="283.88" y="280" as="targetPoint" />
            <Array as="points">
              <mxPoint x="283.88" y="270" />
            </Array>
          </mxGeometry>
        </mxCell>
        <mxCell id="LAtPh6FEfaAHVFc0PdJ9-14" value="" style="endArrow=classic;html=1;endSize=10;targetPerimeterSpacing=15;entryX=0.5;entryY=0;entryDx=0;entryDy=0;" edge="1" parent="WIyWlLk6GJQsqaUBKTNV-1">
          <mxGeometry width="50" height="50" relative="1" as="geometry">
            <mxPoint x="413.88" y="240" as="sourcePoint" />
            <mxPoint x="413.88" y="280" as="targetPoint" />
            <Array as="points">
              <mxPoint x="413.88" y="270" />
            </Array>
          </mxGeometry>
        </mxCell>
        <mxCell id="LAtPh6FEfaAHVFc0PdJ9-15" value="" style="endArrow=classic;html=1;endSize=10;targetPerimeterSpacing=15;entryX=0.5;entryY=0;entryDx=0;entryDy=0;" edge="1" parent="WIyWlLk6GJQsqaUBKTNV-1">
          <mxGeometry width="50" height="50" relative="1" as="geometry">
            <mxPoint x="580" y="240" as="sourcePoint" />
            <mxPoint x="580" y="280" as="targetPoint" />
            <Array as="points">
              <mxPoint x="580" y="270" />
            </Array>
          </mxGeometry>
        </mxCell>
        <mxCell id="LAtPh6FEfaAHVFc0PdJ9-16" value="" style="endArrow=classic;html=1;endSize=10;targetPerimeterSpacing=15;entryX=0.5;entryY=0;entryDx=0;entryDy=0;" edge="1" parent="WIyWlLk6GJQsqaUBKTNV-1">
          <mxGeometry width="50" height="50" relative="1" as="geometry">
            <mxPoint x="684.88" y="240" as="sourcePoint" />
            <mxPoint x="684.88" y="280" as="targetPoint" />
            <Array as="points">
              <mxPoint x="684.88" y="270" />
            </Array>
          </mxGeometry>
        </mxCell>
      </root>
    </mxGraphModel>
  </diagram>
</mxfile>
